<?xml version="1.0" encoding="UTF-8"?>
<svg width="96px" height="96px" viewBox="0 0 96 96" version="1.1" xmlns="http://www.w3.org/2000/svg" xmlns:xlink="http://www.w3.org/1999/xlink">
    <!-- Generator: Sketch 52.5 (67469) - http://www.bohemiancoding.com/sketch -->
    <title>part1_3</title>
    <desc>Created with Sketch.</desc>
    <g id="2018-12版本规范" stroke="none" stroke-width="1" fill="none" fill-rule="evenodd">
        <g id="大客户行业解决方案-copy" transform="translate(-880.000000, -621.000000)">
            <g id="分组-17" transform="translate(880.000000, 621.000000)">
                <rect id="矩形-copy-31" x="0" y="0" width="96" height="96"></rect>
                <g id="分组-18" transform="translate(29.000000, 18.000000)">
                    <path d="M27.8459737,47.6820543 C25.9681113,49.1567817 23.7006348,50.0011874 22.1578947,50.0011874 C19.3438263,50.0011874 14.1183877,47.3140786 13.2447056,42.9033036 L9.01138609,45.8507547 C8.43123091,46.2546881 7.63346949,46.1118321 7.22953611,45.5316769 C7.08010514,45.3170545 7,45.0618102 7,44.8002908 L7,37.3933061 C7,36.7080484 7.27473041,36.0513966 7.76271036,35.5703003 L13.1265663,30.2821092 L13.1288908,30.3195411 C13.2230557,27.0572156 14.0093856,23.8493971 15.4386983,20.9097165 C17.6784305,16.3032388 19.9181626,14 22.1578947,14 C24.3976259,14 26.6373571,16.3032369 28.8770883,20.9097107 C30.4033941,24.0488733 31.1964912,27.4938002 31.1964912,30.9843519 L31.1964912,33.3800529 L34.0060799,32.1963737 C34.6416426,31.9286116 35.3583574,31.9286116 35.9939201,32.1963737 L44,35.5693292 L44,41.8062215 C44,46.9875904 40.1414366,51.3579616 35,52 C32.0147975,51.6272219 29.4620714,49.9975655 27.8459737,47.6820543 Z M21.1578947,26.0005937 C22.5841459,26.0005937 23.7403509,24.8492879 23.7403509,23.4290803 C23.7403509,22.0088727 22.5841459,20.8575669 21.1578947,20.8575669 C19.7316436,20.8575669 18.5754386,22.0088727 18.5754386,23.4290803 C18.5754386,24.8492879 19.7316436,26.0005937 21.1578947,26.0005937 Z M19.5158911,52.0863653 L21.3728962,52.6256967 C22.5388068,52.964313 23.7769827,52.964313 24.9428932,52.6256967 L26.7998983,52.0863653 C27.1393346,51.9877825 27.4944192,52.1830329 27.593002,52.5224692 C27.6414719,52.6893591 27.6199896,52.8687846 27.5334914,53.019515 L23.712988,59.6770656 C23.5370599,59.9836351 23.1459183,60.089541 22.8393488,59.9136129 C22.7409225,59.85713 22.6592845,59.7754919 22.6028015,59.6770656 L18.7822981,53.019515 C18.60637,52.7129454 18.7122758,52.3218039 19.0188454,52.1458758 C19.1695758,52.0593776 19.3490012,52.0378953 19.5158911,52.0863653 Z" id="形状" fill-opacity="0.2" fill="#1798FC"></path>
                    <path d="M28.2712312,39.7346885 C25.7911817,42.9006724 21.5464652,44.8098539 18.9473684,44.8098539 C16.2639361,44.8098539 11.8263572,42.8634457 9.38777802,39.5030078 L10,39.1176545 L9.09568809,20 L7.64912281,21.9607212 L7.64912281,21.1938924 C7.64912278,16.7901817 8.65898739,12.4451186 10.6010715,8.49278043 C13.3831705,2.83092681 16.1652695,-2.08934466e-13 18.9473684,-2.09610107e-13 C21.729468,-2.09610107e-13 24.5115675,2.83092799 27.2936671,8.49278396 C29.2357498,12.4451218 30.245614,16.790184 30.245614,21.1938938 L30.245614,21.5918215 L28.9043119,20 L28,39.560016 L28.2712312,39.7346885 Z M18.9473684,22.4049269 C20.7301824,22.4049269 22.1754386,20.971923 22.1754386,19.2042231 C22.1754386,17.4365232 20.7301824,16.0035192 18.9473684,16.0035192 C17.1645545,16.0035192 15.7192982,17.4365232 15.7192982,19.2042231 C15.7192982,20.971923 17.1645545,22.4049269 18.9473684,22.4049269 Z M12.2973235,46.0088075 L17.2225476,47.0962745 C18.3587454,47.3471418 19.5359915,47.3471418 20.6721892,47.0962745 L25.5974134,46.0088075 C26.0288499,45.9135483 26.4558212,46.1860738 26.5510804,46.6175104 C26.594972,46.8162986 26.5614277,47.0243424 26.457281,47.1992615 L19.6347539,58.6579988 C19.4087209,59.0376313 18.9177319,59.1621483 18.5380994,58.9361153 C18.4236942,58.8679985 18.3280997,58.772404 18.2599829,58.6579988 L11.4374559,47.1992615 C11.2114228,46.8196289 11.3359398,46.32864 11.7155724,46.1026069 C11.8904914,45.9984602 12.0985352,45.9649159 12.2973235,46.0088075 Z M0.958254592,30.5773129 L7.6582079,24 L8.60341398,39.1563942 L2.51160512,43.3797583 C1.78540294,43.8832239 0.788560245,43.7026602 0.28509464,42.9764581 C0.0994646035,42.708704 -1.86796406e-12,42.3906607 -1.8687274e-12,42.0648529 L-1.8687274e-12,32.8608578 C-1.86883258e-12,32.0019181 0.345308527,31.1790392 0.958254592,30.5773129 Z M36.6451594,30.5773129 C37.2581055,31.1790392 37.603414,32.0019181 37.603414,32.8608578 L37.603414,42.0648529 C37.603414,42.3906607 37.5039494,42.708704 37.3183193,42.9764581 C36.8148537,43.7026602 35.818011,43.8832239 35.0918089,43.3797583 L29,39.1563942 L29.9452061,24 L36.6451594,30.5773129 Z" id="形状" fill="#1798FC"></path>
                    <g id="分组-16" transform="translate(25.000000, 22.000000)">
                        <path d="M-3.55271368e-14,4.875 L9.70344223,0.574610832 C10.529089,0.208699178 11.470911,0.208699178 12.2965578,0.574610832 L22,4.875 L22,13.4605234 C22,19.808661 17.2940652,25.1732027 11,26 C4.7059348,25.1732027 -3.57924967e-14,19.808661 -3.37507799e-14,13.4605234 L-3.55271368e-14,4.875 Z M18.8571429,6.5 L18.8571429,8.125 L20.4285714,8.125 L20.4285714,6.5 L18.8571429,6.5 Z M18.8544724,9.74963837 L18.8544724,13.0024978 C18.8544724,15.0152902 18.4987081,16.5259633 17.8159667,17.5440162 L19.1072638,18.4700557 C19.995951,17.1449118 20.425901,15.3192261 20.425901,13.0024978 L20.425901,9.74963837 L18.8544724,9.74963837 Z" id="合并形状" fill="#FFBF02"></path>
                        <path d="M3.10490666,7.07505609 L3.10490666,13.0028594 L3.10223184,13.0976322 C2.86351487,17.3230721 5.56055727,21.0667912 9.42857143,22.1134526 L9.42857143,4.66325388 L3.10490666,7.07505609 Z M1.53347809,5.94238816 L11,2.33192187 L11,24.0386536 L10.2402868,23.9325118 C5.02119269,23.2033368 1.22632607,18.4396427 1.53347809,13.0028594 L1.53347809,5.94238816 Z" id="矩形-copy-2" fill="#FFFFFF" fill-rule="nonzero"></path>
                    </g>
                </g>
                <g id="分组-22" transform="translate(8.000000, 14.000000)" fill="#1798FC" fill-opacity="0.2">
                    <circle id="椭圆形" cx="78" cy="33" r="2"></circle>
                    <circle id="椭圆形-copy-12" cx="11" cy="19" r="4"></circle>
                    <circle id="椭圆形-copy-13" cx="1.5" cy="48.5" r="1.5"></circle>
                    <circle id="椭圆形-copy-15" cx="68" cy="2" r="2"></circle>
                    <circle id="椭圆形-copy-14" cx="32.5" cy="66.5" r="2.5"></circle>
                </g>
            </g>
        </g>
    </g>
</svg>