<?xml version="1.0" encoding="UTF-8"?>
<svg width="96px" height="96px" viewBox="0 0 96 96" version="1.1" xmlns="http://www.w3.org/2000/svg" xmlns:xlink="http://www.w3.org/1999/xlink">
    <!-- Generator: Sketch 52.5 (67469) - http://www.bohemiancoding.com/sketch -->
    <title>part1_2</title>
    <desc>Created with Sketch.</desc>
    <g id="2018-12版本规范" stroke="none" stroke-width="1" fill="none" fill-rule="evenodd">
        <g id="大客户行业解决方案-copy" transform="translate(-552.000000, -621.000000)">
            <g id="分组-24" transform="translate(552.000000, 621.000000)">
                <g id="分组-15" transform="translate(21.000000, 21.000000)">
                    <path d="M28.5702117,23.4468245 L35.7467744,16.2702618 L43.7297382,24.2532256 L36.5531755,31.4297883 L48.5366737,43.4132865 C49.1615126,44.0381254 49.1615126,45.0511894 48.5366737,45.6760282 L41.6760282,52.5366737 C41.0511894,53.1615126 40.0381254,53.1615126 39.4132865,52.5366737 L27.4297883,40.5531755 L22.0616936,45.9212702 L14.0787298,37.9383064 L19.4468245,32.5702117 L7.46332629,20.5867135 C6.83848742,19.9618746 6.83848742,18.9488106 7.46332629,18.3239718 L14.3239718,11.4633263 C14.9488106,10.8384874 15.9618746,10.8384874 16.5867135,11.4633263 L28.5702117,23.4468245 Z M42.5802622,11.6995157 L48.3004843,17.4197378 C48.9253232,18.0445767 48.9253232,19.0576406 48.3004843,19.6824795 L44.8701615,23.1128022 L36.8871978,15.1298385 L40.3175205,11.6995157 C40.9423594,11.0746768 41.9554233,11.0746768 42.5802622,11.6995157 Z M12.9383064,39.0787298 L20.9212702,47.0616936 L20.3408219,47.6421329 C19.5835813,48.3993735 18.6669585,48.97816 17.6577298,49.3363276 C12.5268163,51.1572496 9.62318127,51.7295322 8.94682452,51.0531755 C8.27046751,50.3768185 8.84275083,47.4731815 10.6636745,42.3422645 C11.0218395,41.3330334 11.6006267,40.4164095 12.3578682,39.659168 L12.9383064,39.0787298 Z" id="形状" fill-opacity="0.2" fill="#1798FC"></path>
                    <path d="M1.54415588,9.32233047 L10.0294373,0.837049096 C10.8104858,0.0560005126 12.0768158,0.0560005126 12.8578644,0.837049096 L52.4558441,40.4350288 C53.2368927,41.2160774 53.2368927,42.4824074 52.4558441,43.263456 L43.9705627,51.7487373 C43.1895142,52.5297859 41.9231842,52.5297859 41.1421356,51.7487373 L1.54415588,12.1507576 C0.763107294,11.369709 0.763107294,10.1033791 1.54415588,9.32233047 Z M5.07968978,12.8578644 L6.49390335,14.2720779 L10.736544,10.0294373 L9.32233047,8.61522369 L5.07968978,12.8578644 Z M10.736544,18.5147186 L12.1507576,19.9289322 L16.3933983,15.6862915 L14.9791847,14.2720779 L10.736544,18.5147186 Z M16.3933983,24.1715729 L17.8076118,25.5857864 L22.0502525,21.3431458 L20.636039,19.9289322 L16.3933983,24.1715729 Z M22.0502525,29.8284271 L23.4644661,31.2426407 L27.7071068,27 L26.2928932,25.5857864 L22.0502525,29.8284271 Z M7.90811691,15.6862915 L9.32233047,17.1005051 L14.9791847,11.4436508 L13.5649712,10.0294373 L7.90811691,15.6862915 Z M13.5649712,21.3431458 L14.9791847,22.7573593 L20.636039,17.1005051 L19.2218254,15.6862915 L13.5649712,21.3431458 Z M19.2218254,27 L20.636039,28.4142136 L26.2928932,22.7573593 L24.8786797,21.3431458 L19.2218254,27 Z M27.7071068,35.4852814 L29.1213203,36.8994949 L33.363961,32.6568542 L31.9497475,31.2426407 L27.7071068,35.4852814 Z M24.8786797,32.6568542 L26.2928932,34.0710678 L31.9497475,28.4142136 L30.5355339,27 L24.8786797,32.6568542 Z M33.363961,41.1421356 L34.7781746,42.5563492 L39.0208153,38.3137085 L37.6066017,36.8994949 L33.363961,41.1421356 Z M30.5355339,38.3137085 L31.9497475,39.7279221 L37.6066017,34.0710678 L36.1923882,32.6568542 L30.5355339,38.3137085 Z M39.0208153,46.7989899 L40.4350288,48.2132034 L44.6776695,43.9705627 L43.263456,42.5563492 L39.0208153,46.7989899 Z M36.1923882,43.9705627 L37.6066017,45.3847763 L43.263456,39.7279221 L41.8492424,38.3137085 L36.1923882,43.9705627 Z" id="形状" fill="#1798FC"></path>
                    <path d="M34.8700577,7 L44.7695526,16.8994949 L17.8994949,43.7695526 L8,33.8700577 L34.8700577,7 Z M12.2426407,35.2842712 L10.8284271,33.8700577 L12.2426407,35.2842712 Z" id="形状" fill="#FFFFFF"></path>
                    <path d="M43.7989899,0.837049096 L50.8700577,7.90811691 C51.6511063,8.68916549 51.6511063,9.95549545 50.8700577,10.736544 L46.627417,14.9791847 L36.7279221,5.07968978 L40.9705627,0.837049096 C41.7516113,0.0560005126 43.0179413,0.0560005126 43.7989899,0.837049096 Z M42.3847763,2.25126266 L39.5563492,5.07968978 L40.9705627,6.49390335 L43.7989899,3.66547622 L42.3847763,2.25126266 Z M35.3137085,6.49390335 L45.2132034,16.3933983 L18.3431458,43.263456 L8.44365081,33.363961 L35.3137085,6.49390335 Z M35.3137085,9.32233047 L11.2720779,33.363961 L12.6862915,34.7781746 L36.7279221,10.736544 L35.3137085,9.32233047 Z M7.02943725,34.7781746 L16.9289322,44.6776695 L16.2205533,45.386042 C15.2737099,46.3328854 14.1275195,47.0565195 12.8655326,47.5041957 C6.51298668,49.7576925 2.91770572,50.4654329 2.07968978,49.627417 C1.24167328,48.7894005 1.94941524,45.1941153 4.20291567,38.8415613 C4.65059329,37.5795748 5.37422755,36.4333843 6.32107105,35.4865408 L7.02943725,34.7781746 Z" id="形状" fill="#FFBF02"></path>
                </g>
                <g id="分组-22" transform="translate(8.000000, 13.000000)" fill="#1798FC" fill-opacity="0.2">
                    <circle id="椭圆形" cx="78" cy="33" r="2"></circle>
                    <circle id="椭圆形-copy-12" cx="11" cy="19" r="4"></circle>
                    <circle id="椭圆形-copy-13" cx="1.5" cy="48.5" r="1.5"></circle>
                    <circle id="椭圆形-copy-15" cx="68" cy="2" r="2"></circle>
                    <circle id="椭圆形-copy-14" cx="32.5" cy="66.5" r="2.5"></circle>
                </g>
                <rect id="矩形-copy" x="0" y="0" width="96" height="96"></rect>
            </g>
        </g>
    </g>
</svg>