<?xml version="1.0" encoding="UTF-8"?>
<svg width="96px" height="96px" viewBox="0 0 96 96" version="1.1" xmlns="http://www.w3.org/2000/svg" xmlns:xlink="http://www.w3.org/1999/xlink">
    <!-- Generator: Sketch 52.5 (67469) - http://www.bohemiancoding.com/sketch -->
    <title>part1_1</title>
    <desc>Created with Sketch.</desc>
    <g id="2018-12版本规范" stroke="none" stroke-width="1" fill="none" fill-rule="evenodd">
        <g id="大客户行业解决方案-copy" transform="translate(-224.000000, -621.000000)">
            <g id="分组-26" transform="translate(224.000000, 621.000000)">
                <g id="分组-23" transform="translate(18.000000, 22.000000)">
                    <path d="M41.6,24.647619 L41.6,47.352381 C41.6,48.2360366 40.8836556,48.952381 40,48.952381 L9.6,48.952381 C8.7163444,48.952381 8,48.2360366 8,47.352381 L8,24.647619 C8,23.7639634 8.7163444,23.047619 9.6,23.047619 L20,23.047619 L20,20.6190476 C20,19.7248723 20.7163444,19 21.6,19 L28,19 C28.8836556,19 29.6,19.7248723 29.6,20.6190476 L29.6,23.047619 L40,23.047619 C40.8836556,23.047619 41.6,23.7639634 41.6,24.647619 Z M22.4,32.7619048 L22.4,35.1904762 L27.2,35.1904762 L27.2,32.7619048 L22.4,32.7619048 Z M28,23.047619 L28,20.6190476 L21.6,20.6190476 L21.6,23.047619 L28,23.047619 Z M59,44.1428571 C59,45.9312078 57.5673112,47.3809524 55.8,47.3809524 C55.222031,47.3809524 54.67985,47.2259014 54.2118634,46.9546629 C52.6886434,48.2321259 50.73294,49 48.6,49 C46.46706,49 44.5113566,48.2321259 42.9881366,46.9546629 C42.52015,47.2259014 41.977969,47.3809524 41.4,47.3809524 C39.6326888,47.3809524 38.2,45.9312078 38.2,44.1428571 C38.2,42.9116141 38.8791005,41.8408718 39.8789562,41.2932416 C39.8268861,40.9014098 39.8,40.5015011 39.8,40.0952381 C39.8,36.3172264 42.1250936,33.0887343 45.406307,31.7950329 C45.510803,30.1021776 46.9007242,28.7619048 48.6,28.7619048 C50.2992758,28.7619048 51.689197,30.1021776 51.793693,31.7950329 C55.0749064,33.0887343 57.4,36.3172264 57.4,40.0952381 C57.4,40.5015011 57.3731139,40.9014098 57.3210438,41.2932416 C58.3208995,41.8408718 59,42.9116141 59,44.1428571 Z" id="形状" fill-opacity="0.2" fill="#1798FC"></path>
                    <g id="分组-21">
                        <path d="M19,2 C19,0.8954305 19.8954305,0 21,0 L33,0 C34.1045695,0 35,0.8954305 35,2 L35,5 L52,5 C53.1045695,5 54,5.8954305 54,7 L54,20 L8.91731133e-13,20 L8.91731133e-13,7 C8.91550722e-13,5.8954305 0.8954305,5 2,5 L19,5 L19,2 Z M21,5 L33,5 L33,2 L21,2 L21,5 Z M24,22 L24,25 L30,25 L30,22 L54,22 L54,45 C54,46.1045695 53.1045695,47 52,47 L2,47 C0.8954305,47 -3.6377984e-12,46.1045695 -3.63797881e-12,45 L-3.63797881e-12,22 L24,22 Z M4,26 L20,26 L20,29 L34,29 L34,26 L50,26 L50,43 L4,43 L4,26 Z M22,24 L2,24 L2,43 C2,44.1045695 2.8954305,45 4,45 L50,45 C51.1045695,45 52,44.1045695 52,43 L52,24 L32,24 L32,27 L22,27 L22,24 Z" id="形状" fill="#1798FC"></path>
                        <g id="分组-20" transform="translate(40.000000, 18.000000)">
                            <circle id="椭圆形" fill="#FFFFFF" cx="13" cy="14" r="11"></circle>
                            <g id="分组-19" fill="#FFBF02" fill-rule="nonzero">
                                <path d="M23.9013048,15.4798867 C25.1511243,16.1563711 26,17.4790528 26,19 C26,21.209139 24.209139,23 22,23 C21.2775387,23 20.5998125,22.8084664 20.0148293,22.4734072 C18.1108042,24.0514496 15.666175,25 13,25 C10.333825,25 7.88919581,24.0514496 5.98517074,22.4734072 C5.40018754,22.8084664 4.7224613,23 4,23 C1.790861,23 0,21.209139 0,19 C0,17.4790528 0.848875679,16.1563711 2.0986952,15.4798867 C2.03360768,14.9958592 2,14.5018544 2,14 C2,9.33304434 4.90636698,5.34490705 9.00788377,3.7468053 C9.1385038,1.65563111 10.8759052,0 13,0 C15.1240948,0 16.8614962,1.65563111 16.9921162,3.7468053 C21.093633,5.34490705 24,9.33304434 24,14 C24,14.5018544 23.9663923,14.9958592 23.9013048,15.4798867 Z M21.9450303,15.00037 C21.9813527,14.6719168 22,14.3381361 22,14 C22,10.3089246 19.7780253,7.13681922 16.5987051,5.74831301 C15.9498908,7.08134263 14.5822273,8 13,8 C11.4177727,8 10.0501092,7.08134263 9.40129486,5.74831301 C6.22197468,7.13681922 4,10.3089246 4,14 C4,14.3381361 4.01864731,14.6719168 4.05496969,15.00037 C6.23877046,15.0297839 8,16.8092134 8,19 C8,19.7561264 7.79020043,20.4632515 7.42563804,21.0663385 C8.95854466,22.2772436 10.8948679,23 13,23 C15.1051321,23 17.0414553,22.2772436 18.574362,21.0663385 C18.2097996,20.4632515 18,19.7561264 18,19 C18,16.8092134 19.7612295,15.0297839 21.9450303,15.00037 Z M9.86715184,20.261524 C9.95418888,19.8547725 10,19.4327361 10,19 C10,16.3986359 8.34450907,14.1839325 6.0295984,13.3519609 C6.21800812,11.2994528 7.29249221,9.50338904 8.86714607,8.34967411 C9.94317303,9.37238905 11.3982933,10 13,10 C14.6017067,10 16.056827,9.37238905 17.1328539,8.34967411 C18.7075078,9.50338904 19.7819919,11.2994528 19.9704016,13.3519609 C17.6554909,14.1839325 16,16.3986359 16,19 C16,19.4327361 16.0458111,19.8547725 16.1328482,20.261524 C15.1902676,20.7340484 14.1261919,21 13,21 C11.8738081,21 10.8097324,20.7340484 9.86715184,20.261524 Z" id="形状"></path>
                            </g>
                        </g>
                    </g>
                </g>
                <g id="分组-25" transform="translate(8.000000, 14.000000)" fill="#1798FC" fill-opacity="0.2">
                    <circle id="椭圆形" cx="78" cy="33" r="2"></circle>
                    <circle id="椭圆形-copy-12" cx="11" cy="19" r="4"></circle>
                    <circle id="椭圆形-copy-13" cx="1.5" cy="48.5" r="1.5"></circle>
                    <circle id="椭圆形-copy-15" cx="68" cy="2" r="2"></circle>
                    <circle id="椭圆形-copy-14" cx="32.5" cy="66.5" r="2.5"></circle>
                </g>
                <rect id="矩形" x="0" y="0" width="96" height="96"></rect>
            </g>
        </g>
    </g>
</svg>