<?xml version="1.0" encoding="UTF-8"?>
<svg width="588px" height="430px" viewBox="0 0 588 430" version="1.1" xmlns="http://www.w3.org/2000/svg" xmlns:xlink="http://www.w3.org/1999/xlink">
    <!-- Generator: Sketch 52.5 (67469) - http://www.bohemiancoding.com/sketch -->
    <title>part4</title>
    <desc>Created with Sketch.</desc>
    <defs>
        <path d="M504.010231,233.760451 C504.010231,267.393803 490.92729,299.008 467.182039,322.776338 C443.552057,346.429296 412.141471,359.524958 378.713691,359.640338 L125.29654,359.640338 C91.8687602,359.524958 60.4581741,346.429296 36.8281918,322.776338 C13.0829414,299.008 0,267.393803 0,233.760451 C0,200.127099 13.0829414,168.512901 36.8281918,144.744563 C57.3459325,124.206873 83.6847176,111.630423 112.155964,108.572845 C118.438082,83.6507042 131.348121,60.8054085 149.963936,42.171493 C177.167233,14.9417465 213.303815,0 251.745762,0 C298.602288,0 342.634742,22.9029859 369.607503,61.3246197 C372.659207,65.675213 384.425193,89.8269296 387.875899,99.7269296 C391.326605,109.62693 389.576739,108.202398 395.151207,108.949492 C422.321916,112.590932 447.421495,124.964806 467.124405,144.686873 C490.869655,168.512901 504.010231,200.127099 504.010231,233.760451 Z" id="path-1"></path>
        <filter x="-9.9%" y="-12.8%" width="119.8%" height="127.8%" filterUnits="objectBoundingBox" id="filter-2">
            <feOffset dx="0" dy="4" in="SourceAlpha" result="shadowOffsetOuter1"></feOffset>
            <feGaussianBlur stdDeviation="16" in="shadowOffsetOuter1" result="shadowBlurOuter1"></feGaussianBlur>
            <feColorMatrix values="0 0 0 0 0   0 0 0 0 0.199925219   0 0 0 0 0.435002126  0 0 0 0.2 0" type="matrix" in="shadowBlurOuter1"></feColorMatrix>
        </filter>
        <linearGradient x1="30.4978653%" y1="-21.2899483%" x2="100%" y2="94.9130279%" id="linearGradient-3">
            <stop stop-color="#FFFFFF" stop-opacity="0" offset="0%"></stop>
            <stop stop-color="#C8CED4" offset="100%"></stop>
        </linearGradient>
        <rect id="path-4" x="0" y="0" width="292" height="182" rx="12"></rect>
        <filter x="-19.9%" y="-30.8%" width="139.7%" height="163.7%" filterUnits="objectBoundingBox" id="filter-5">
            <feOffset dx="0" dy="2" in="SourceAlpha" result="shadowOffsetOuter1"></feOffset>
            <feGaussianBlur stdDeviation="19" in="shadowOffsetOuter1" result="shadowBlurOuter1"></feGaussianBlur>
            <feColorMatrix values="0 0 0 0 0.065   0 0 0 0 0.3965   0 0 0 0 0.65  0 0 0 0.2 0" type="matrix" in="shadowBlurOuter1"></feColorMatrix>
        </filter>
        <rect id="path-6" x="0" y="0" width="196" height="280" rx="12"></rect>
        <filter x="-25.0%" y="-16.8%" width="150.0%" height="135.0%" filterUnits="objectBoundingBox" id="filter-7">
            <feOffset dx="0" dy="2" in="SourceAlpha" result="shadowOffsetOuter1"></feOffset>
            <feGaussianBlur stdDeviation="16" in="shadowOffsetOuter1" result="shadowBlurOuter1"></feGaussianBlur>
            <feColorMatrix values="0 0 0 0 0.065   0 0 0 0 0.3965   0 0 0 0 0.65  0 0 0 0.2 0" type="matrix" in="shadowBlurOuter1"></feColorMatrix>
        </filter>
        <linearGradient x1="81.7700317%" y1="8.91789047%" x2="22.5829667%" y2="100%" id="linearGradient-8">
            <stop stop-color="#35C3FF" offset="0%"></stop>
            <stop stop-color="#1890FF" offset="100%"></stop>
        </linearGradient>
        <linearGradient x1="50%" y1="100%" x2="50%" y2="-46.5602219%" id="linearGradient-9">
            <stop stop-color="#FFFFFF" stop-opacity="0" offset="0%"></stop>
            <stop stop-color="#55ADFF" stop-opacity="0.734916908" offset="51.2734827%"></stop>
            <stop stop-color="#1890FF" offset="100%"></stop>
        </linearGradient>
        <path d="M234,10.7202797 C231.790861,10.7202797 230,12.4485232 230,14.5804196 L230,129.41958 C230,131.551477 231.790861,133.27972 234,133.27972 L502,133.27972 C504.209139,133.27972 506,131.551477 506,129.41958 L506,14.5804196 C506,12.4485232 504.209139,10.7202797 502,10.7202797 L234,10.7202797 Z M234,3 L502,3 C508.627417,3 514,8.18473045 514,14.5804196 L514,129.41958 C514,135.81527 508.627417,141 502,141 L234,141 C227.372583,141 222,135.81527 222,129.41958 L222,14.5804196 C222,8.18473045 227.372583,3 234,3 Z" id="path-10"></path>
        <filter x="-16.8%" y="-34.1%" width="133.6%" height="171.0%" filterUnits="objectBoundingBox" id="filter-11">
            <feOffset dx="0" dy="2" in="SourceAlpha" result="shadowOffsetOuter1"></feOffset>
            <feGaussianBlur stdDeviation="16" in="shadowOffsetOuter1" result="shadowBlurOuter1"></feGaussianBlur>
            <feColorMatrix values="0 0 0 0 0.065   0 0 0 0 0.3965   0 0 0 0 0.65  0 0 0 0.2 0" type="matrix" in="shadowBlurOuter1"></feColorMatrix>
        </filter>
        <path d="M8.68,2.864 L14.944,2.864 C17.728,2.864 19.816,3.632 21.256,5.168 C22.624,6.608 23.32,8.696 23.32,11.432 C23.32,14.144 22.624,16.232 21.256,17.696 C19.816,19.232 17.728,20 14.944,20 L8.68,20 L8.68,2.864 Z M11.488,5.264 L11.488,17.6 L14.416,17.6 C16.552,17.6 18.112,17.096 19.096,16.112 C20.056,15.104 20.536,13.544 20.536,11.432 C20.536,9.272 20.056,7.688 19.096,6.728 C18.112,5.744 16.552,5.264 14.416,5.264 L11.488,5.264 Z M34.2346667,2.528 C36.8506667,2.528 38.9146667,3.368 40.4266667,5.072 C41.8666667,6.68 42.5866667,8.816 42.5866667,11.456 C42.5866667,14.096 41.8666667,16.208 40.4266667,17.816 C38.9146667,19.496 36.8506667,20.336 34.2346667,20.336 C31.5946667,20.336 29.5306667,19.472 28.0426667,17.792 C26.6026667,16.16 25.9066667,14.048 25.9066667,11.456 C25.9066667,8.84 26.6026667,6.728 28.0426667,5.096 C29.5306667,3.368 31.5946667,2.528 34.2346667,2.528 Z M34.2346667,5 C32.4586667,5 31.0906667,5.6 30.1066667,6.8 C29.1706667,7.952 28.7146667,9.488 28.7146667,11.456 C28.7146667,13.4 29.1706667,14.936 30.1066667,16.088 C31.0666667,17.264 32.4586667,17.864 34.2346667,17.864 C36.0106667,17.864 37.3786667,17.288 38.3386667,16.16 C39.2746667,15.032 39.7546667,13.472 39.7546667,11.456 C39.7546667,9.44 39.2746667,7.856 38.3386667,6.704 C37.3786667,5.552 36.0106667,5 34.2346667,5 Z M51.9413334,2.528 C53.9573334,2.528 55.5413334,2.936 56.6693334,3.776 C57.8693334,4.664 58.5653334,6.056 58.7333334,7.928 L55.9493334,7.928 C55.7093334,6.872 55.2533334,6.104 54.6293334,5.648 C54.0053334,5.168 53.0453334,4.952 51.7973334,4.952 C50.7173334,4.952 49.9013334,5.096 49.3253334,5.408 C48.6053334,5.768 48.2693334,6.368 48.2693334,7.184 C48.2693334,7.904 48.6533334,8.504 49.4693334,8.936 C49.8293334,9.128 50.8133334,9.488 52.3973334,9.992 C54.7253334,10.712 56.2133334,11.288 56.8853334,11.672 C58.3733334,12.56 59.1173334,13.784 59.1173334,15.368 C59.1173334,16.904 58.5173334,18.128 57.3173334,19.016 C56.1173334,19.88 54.4133334,20.336 52.2293334,20.336 C50.1173334,20.336 48.4613334,19.928 47.2853334,19.112 C45.8453334,18.104 45.0533334,16.52 44.9333334,14.336 L47.7173334,14.336 C47.9093334,15.632 48.3653334,16.568 49.1093334,17.12 C49.7813334,17.6 50.8133334,17.864 52.2293334,17.864 C53.4773334,17.864 54.4853334,17.648 55.2053334,17.24 C55.9253334,16.808 56.3093334,16.256 56.3093334,15.536 C56.3093334,14.624 55.7573334,13.904 54.7013334,13.376 C54.3653334,13.208 53.2613334,12.824 51.3653334,12.248 C49.2533334,11.576 47.9333334,11.096 47.4293334,10.808 C46.1093334,10.016 45.4613334,8.864 45.4613334,7.352 C45.4613334,5.84 46.0853334,4.64 47.3813334,3.776 C48.5813334,2.936 50.0933334,2.528 51.9413334,2.528 Z M68.2320001,2.528 C70.2480001,2.528 71.8320001,2.936 72.9600001,3.776 C74.1600001,4.664 74.8560001,6.056 75.0240001,7.928 L72.2400001,7.928 C72.0000001,6.872 71.5440001,6.104 70.9200001,5.648 C70.2960001,5.168 69.3360001,4.952 68.0880001,4.952 C67.0080001,4.952 66.1920001,5.096 65.6160001,5.408 C64.8960001,5.768 64.5600001,6.368 64.5600001,7.184 C64.5600001,7.904 64.9440001,8.504 65.7600001,8.936 C66.1200001,9.128 67.1040001,9.488 68.6880001,9.992 C71.0160001,10.712 72.5040001,11.288 73.1760001,11.672 C74.6640001,12.56 75.4080001,13.784 75.4080001,15.368 C75.4080001,16.904 74.8080001,18.128 73.6080001,19.016 C72.4080001,19.88 70.7040001,20.336 68.5200001,20.336 C66.4080001,20.336 64.7520001,19.928 63.5760001,19.112 C62.1360001,18.104 61.3440001,16.52 61.2240001,14.336 L64.0080001,14.336 C64.2000001,15.632 64.6560001,16.568 65.4000001,17.12 C66.0720001,17.6 67.1040001,17.864 68.5200001,17.864 C69.7680001,17.864 70.7760001,17.648 71.4960001,17.24 C72.2160001,16.808 72.6000001,16.256 72.6000001,15.536 C72.6000001,14.624 72.0480001,13.904 70.9920001,13.376 C70.6560001,13.208 69.5520001,12.824 67.6560001,12.248 C65.5440001,11.576 64.2240001,11.096 63.7200001,10.808 C62.4000001,10.016 61.7520001,8.864 61.7520001,7.352 C61.7520001,5.84 62.3760001,4.64 63.6720001,3.776 C64.8720001,2.936 66.3840001,2.528 68.2320001,2.528 Z M81.2826667,4.808 L78.0666667,4.808 L78.0666667,2.36 L87.1866667,2.36 L87.1866667,4.808 L83.7546667,4.808 L83.7546667,15.296 C84.9546667,14.912 86.1066667,14.48 87.2586667,14.024 L87.2586667,16.544 C84.4746667,17.6 81.5226667,18.512 78.3786667,19.256 L77.7546667,16.712 C78.9546667,16.52 80.1306667,16.28 81.2826667,15.992 L81.2826667,4.808 Z M90.2826667,6.104 C90.0186667,6.872 89.7306667,7.616 89.4186667,8.288 C90.2826667,10.376 91.4106667,12.32 92.8026667,14.096 C94.2186667,11.84 95.0106667,9.176 95.2026667,6.104 L90.2826667,6.104 Z M97.5306667,6.104 C97.3386667,9.944 96.3066667,13.256 94.4106667,15.992 C96.0186667,17.72 97.8666667,19.256 99.9786667,20.648 L98.3226667,22.568 C96.2106667,21.152 94.3866667,19.616 92.8266667,17.936 C91.0986667,19.76 88.8906667,21.32 86.2506667,22.568 L84.8826667,20.384 C87.5226667,19.28 89.6346667,17.864 91.2666667,16.088 C89.9946667,14.456 88.9386667,12.704 88.0746667,10.856 C87.6906667,11.456 87.2826667,12.032 86.8506667,12.56 L85.2666667,10.592 C87.1866667,8.024 88.4826667,4.568 89.1546667,0.248 L91.6026667,0.68 C91.4106667,1.736 91.2186667,2.72 90.9786667,3.68 L99.3546667,3.68 L99.3546667,6.104 L97.5306667,6.104 Z M104.605333,3.584 L112.165333,3.584 L112.165333,0.464 L114.757333,0.464 L114.757333,3.584 L122.197333,3.584 L122.197333,5.96 L114.757333,5.96 L114.757333,9.224 L124.165333,9.224 L124.165333,11.624 L114.757333,11.624 L114.757333,19.304 L119.653333,19.304 L119.653333,13.256 L122.029333,13.256 L122.029333,22.544 L119.653333,22.544 L119.653333,21.608 L107.293333,21.608 L107.293333,22.544 L104.917333,22.544 L104.917333,13.256 L107.293333,13.256 L107.293333,19.304 L112.165333,19.304 L112.165333,11.624 L102.781333,11.624 L102.781333,9.224 L112.165333,9.224 L112.165333,5.96 L104.605333,5.96 L104.605333,3.584 Z M33.12,47.528 C35.136,47.528 36.816,48.056 38.112,49.112 C39.36,50.12 40.104,51.512 40.368,53.24 L37.632,53.24 C37.344,52.112 36.816,51.296 36.024,50.768 C35.256,50.24 34.272,50 33.072,50 C31.272,50 29.928,50.6 29.016,51.848 C28.176,52.952 27.768,54.488 27.768,56.456 C27.768,58.472 28.176,60.032 28.992,61.112 C29.88,62.264 31.272,62.864 33.144,62.864 C34.368,62.864 35.376,62.552 36.144,61.976 C36.96,61.328 37.536,60.344 37.872,59.048 L40.608,59.048 C40.224,61.064 39.336,62.624 37.92,63.752 C36.6,64.808 35.016,65.336 33.168,65.336 C30.312,65.336 28.176,64.424 26.784,62.648 C25.56,61.112 24.96,59.048 24.96,56.456 C24.96,53.912 25.584,51.824 26.856,50.24 C28.296,48.416 30.384,47.528 33.12,47.528 Z M51.3546667,47.528 C53.3706667,47.528 55.0506667,48.056 56.3466667,49.112 C57.5946667,50.12 58.3386667,51.512 58.6026667,53.24 L55.8666667,53.24 C55.5786667,52.112 55.0506667,51.296 54.2586667,50.768 C53.4906667,50.24 52.5066667,50 51.3066667,50 C49.5066667,50 48.1626667,50.6 47.2506667,51.848 C46.4106667,52.952 46.0026667,54.488 46.0026667,56.456 C46.0026667,58.472 46.4106667,60.032 47.2266667,61.112 C48.1146667,62.264 49.5066667,62.864 51.3786667,62.864 C52.6026667,62.864 53.6106667,62.552 54.3786667,61.976 C55.1946667,61.328 55.7706667,60.344 56.1066667,59.048 L58.8426667,59.048 C58.4586667,61.064 57.5706667,62.624 56.1546667,63.752 C54.8346667,64.808 53.2506667,65.336 51.4026667,65.336 C48.5466667,65.336 46.4106667,64.424 45.0186667,62.648 C43.7946667,61.112 43.1946667,59.048 43.1946667,56.456 C43.1946667,53.912 43.8186667,51.824 45.0906667,50.24 C46.5306667,48.416 48.6186667,47.528 51.3546667,47.528 Z M64.9573334,49.808 L61.7413334,49.808 L61.7413334,47.36 L70.8613334,47.36 L70.8613334,49.808 L67.4293334,49.808 L67.4293334,60.296 C68.6293334,59.912 69.7813334,59.48 70.9333334,59.024 L70.9333334,61.544 C68.1493334,62.6 65.1973334,63.512 62.0533334,64.256 L61.4293334,61.712 C62.6293334,61.52 63.8053334,61.28 64.9573334,60.992 L64.9573334,49.808 Z M73.9573334,51.104 C73.6933334,51.872 73.4053334,52.616 73.0933334,53.288 C73.9573334,55.376 75.0853334,57.32 76.4773334,59.096 C77.8933334,56.84 78.6853334,54.176 78.8773334,51.104 L73.9573334,51.104 Z M81.2053334,51.104 C81.0133334,54.944 79.9813334,58.256 78.0853334,60.992 C79.6933334,62.72 81.5413334,64.256 83.6533334,65.648 L81.9973334,67.568 C79.8853334,66.152 78.0613334,64.616 76.5013334,62.936 C74.7733334,64.76 72.5653334,66.32 69.9253334,67.568 L68.5573334,65.384 C71.1973334,64.28 73.3093334,62.864 74.9413334,61.088 C73.6693334,59.456 72.6133334,57.704 71.7493334,55.856 C71.3653334,56.456 70.9573334,57.032 70.5253334,57.56 L68.9413334,55.592 C70.8613334,53.024 72.1573334,49.568 72.8293334,45.248 L75.2773334,45.68 C75.0853334,46.736 74.8933334,47.72 74.6533334,48.68 L83.0293334,48.68 L83.0293334,51.104 L81.2053334,51.104 Z M88.2800001,48.584 L95.8400001,48.584 L95.8400001,45.464 L98.4320001,45.464 L98.4320001,48.584 L105.872,48.584 L105.872,50.96 L98.4320001,50.96 L98.4320001,54.224 L107.84,54.224 L107.84,56.624 L98.4320001,56.624 L98.4320001,64.304 L103.328,64.304 L103.328,58.256 L105.704,58.256 L105.704,67.544 L103.328,67.544 L103.328,66.608 L90.9680001,66.608 L90.9680001,67.544 L88.5920001,67.544 L88.5920001,58.256 L90.9680001,58.256 L90.9680001,64.304 L95.8400001,64.304 L95.8400001,56.624 L86.4560001,56.624 L86.4560001,54.224 L95.8400001,54.224 L95.8400001,50.96 L88.2800001,50.96 L88.2800001,48.584 Z" id="path-12"></path>
        <filter x="-50.2%" y="-83.2%" width="200.4%" height="272.3%" filterUnits="objectBoundingBox" id="filter-13">
            <feOffset dx="0" dy="2" in="SourceAlpha" result="shadowOffsetOuter1"></feOffset>
            <feGaussianBlur stdDeviation="19" in="shadowOffsetOuter1" result="shadowBlurOuter1"></feGaussianBlur>
            <feColorMatrix values="0 0 0 0 0.065   0 0 0 0 0.3965   0 0 0 0 0.65  0 0 0 0.2 0" type="matrix" in="shadowBlurOuter1"></feColorMatrix>
        </filter>
        <filter x="-23.3%" y="-18.6%" width="146.6%" height="137.2%" filterUnits="objectBoundingBox" id="filter-14">
            <feGaussianBlur stdDeviation="6" in="SourceGraphic"></feGaussianBlur>
        </filter>
        <path d="M52,336 L52,329.5 L58,329.5 L58,342 L3.48165941e-13,342 L3.48165941e-13,296 L58,296 L58,308.5 L52,308.5 L52,302 L6,302 L6,336 L52,336 Z M52.184,312.958 L58.182,312.958 L58.182,324.72 L34.76,324.72 C33.068,327.848 29.798,330 26,330 C20.486,330 16,325.514 16,320 C16,314.486 20.486,310 26,310 C31.076,310 35.234,313.814 35.87,318.72 L41,318.72 L41,313 L47,313 L47,318.72 L52.184,318.72 L52.184,312.958 Z M26,324 C28.206,324 30,322.206 30,320 C30,317.794 28.206,316 26,316 C23.794,316 22,317.794 22,320 C22,322.206 23.794,324 26,324 Z" id="path-15"></path>
        <filter x="-83.4%" y="-103.3%" width="266.7%" height="310.9%" filterUnits="objectBoundingBox" id="filter-16">
            <feOffset dx="0" dy="1" in="SourceAlpha" result="shadowOffsetOuter1"></feOffset>
            <feGaussianBlur stdDeviation="16" in="shadowOffsetOuter1" result="shadowBlurOuter1"></feGaussianBlur>
            <feColorMatrix values="0 0 0 0 0.065   0 0 0 0 0.3965   0 0 0 0 0.65  0 0 0 0.2 0" type="matrix" in="shadowBlurOuter1"></feColorMatrix>
        </filter>
    </defs>
    <g id="2018-12版本规范" stroke="none" stroke-width="1" fill="none" fill-rule="evenodd">
        <g id="大客户行业解决方案-copy" transform="translate(-88.000000, -2213.000000)">
            <g id="分组-35" transform="translate(88.000000, 2213.000000)">
                <g id="分组-34" transform="translate(32.000000, 30.000000)">
                    <g id="分组-38" opacity="0.4" transform="translate(21.000000, 5.000000)">
                        <g id="路径">
                            <use fill="black" fill-opacity="1" filter="url(#filter-2)" xlink:href="#path-1"></use>
                            <use fill="#FAF9FA" fill-rule="evenodd" xlink:href="#path-1"></use>
                        </g>
                        <path d="M504.010231,234.115941 C504.010231,267.749293 490.92729,299.36349 467.182039,323.131828 C443.552057,346.784786 412.141471,359.880448 378.713691,359.995828 L125.29654,359.995828 C91.8687602,359.880448 60.4581741,346.784786 36.8281918,323.131828 C13.0829414,299.36349 0,267.749293 0,234.115941 C0,200.482589 13.0829414,168.868392 36.8281918,145.100054 C57.3459325,124.562364 83.6847176,111.985913 112.155964,108.928335 C118.438082,84.0061946 131.348121,61.1608988 149.963936,42.5269833 C177.167233,15.2972368 163.623218,67.5068143 149.329961,110.428279 C147.48567,115.908842 146.102451,124.966195 145.180306,132.581293 C144.315794,139.61949 138.206579,144.811603 131.175218,144.407772 C129.388561,144.292392 127.601904,144.234702 125.872881,144.234702 C119.706032,144.234702 113.712085,144.869293 107.891041,146.023096 C66.3944867,154.561237 35.272071,191.540617 36.0213144,235.558195 C36.8281918,284.190983 78.0942096,323.93949 126.679758,323.93949 L377.330472,323.93949 C426.261826,323.93949 466.836234,285.114026 467.931282,236.192786 C469.083964,185.713913 428.394288,144.234702 378.194984,144.234702 C328.802558,144.234702 288.573954,184.38704 288.458686,233.82749 C288.458686,242.884842 281.023886,251.249913 272.032966,251.999885 C261.370657,252.922927 252.437371,244.500166 252.437371,234.058251 C252.437371,200.424899 265.520313,168.810702 289.265563,145.042364 C313.010813,121.274026 344.594302,108.178364 378.194984,108.178364 C411.795666,108.178364 443.379155,121.274026 467.124405,145.042364 C490.869655,168.868392 504.010231,200.482589 504.010231,234.115941 Z" id="路径" fill="url(#linearGradient-3)"></path>
                    </g>
                    <g id="分组-39" transform="translate(222.000000, 160.000000)">
                        <g id="矩形">
                            <use fill="black" fill-opacity="1" filter="url(#filter-5)" xlink:href="#path-4"></use>
                            <use fill="#FFFFFF" fill-rule="evenodd" xlink:href="#path-4"></use>
                        </g>
                        <path d="M12,0 L146,0 L146,182 L12,182 C5.372583,182 8.11624501e-16,176.627417 0,170 L0,12 C-8.11624501e-16,5.372583 5.372583,1.21743675e-15 12,0 Z" id="矩形" fill="#F4F6FC"></path>
                        <path d="M90.6546351,166.323598 L119.454635,162.808959 C120.112496,162.728676 120.71088,163.196896 120.791163,163.854757 C120.797049,163.902988 120.8,163.951533 120.8,164.000122 L120.8,167.859827 C120.8,168.522569 120.262742,169.059827 119.6,169.059827 L90.8,169.059827 C90.1372583,169.059827 89.6,168.522569 89.6,167.859827 L89.6,167.514761 C89.6,166.908238 90.0525786,166.397071 90.6546351,166.323598 Z" id="矩形" fill="#000000"></path>
                        <g id="分组-13" transform="translate(222.393657, 115.400000) scale(-1, 1) translate(-222.393657, -115.400000) translate(167.193657, 48.800000)">
                            <path d="M26.2707219,31.7218565 C23.0042644,28.0136422 20.7659413,23.3057002 21.1548402,17.8207318 C22.2273787,2.69382107 43.5060933,6.0215487 47.6452438,13.6563142 C51.7843944,21.2910798 49.6911925,39.4354544 44.3417092,40.8 C42.3745085,41.3017933 38.5735265,40.3726552 34.6068216,38.2448922 L37.5428571,58.8 L20.4,58.8 L26.2707219,31.7218565 Z" id="路径" fill="#804510"></path>
                            <path d="M47.4030099,33.6933692 C46.7959168,33.7644398 46.1725702,33.6933692 45.5714076,33.6933692 C44.4833453,33.6933692 43.2927087,33.4832885 43.2151719,33.6933692 C43.1126077,33.9712597 43.5295834,34.8590742 44.4804584,35.5010275 C45.25173,36.0217272 46.5118291,36.1292831 47.0349246,35.848466 L47.4030099,33.6933692 Z" id="形状" fill="#D94A5B"></path>
                            <path d="M24.0556976,30.9155556 C20.5249095,27.9413564 20.777945,27.4497602 19.4376,24.6693697 C17.315164,20.2666219 16.2493388,15.6 18.9642128,8.4 C20.4740662,4.39578299 27.4023093,0.66332325 35.4852692,0.66332325 C43.5682291,0.66332325 54.9713345,7.51330447 48.0739185,14.1 C42.6035627,14.1 41.3953494,14.5574603 38.128419,16.9795153 C36.7084739,17.5127413 35.4933209,18.9729029 34.4829599,21.36 L33.019017,24.6693697 C31.5459121,19.0380619 29.6240983,16.9186733 27.2535756,18.311204 C24.883053,19.7037347 25.1479454,21.8231232 28.048253,24.6693697 L26.2827188,32.898372 L24.0556976,30.9155556 Z" id="Hair" fill="#340909" fill-rule="nonzero"></path>
                            <g id="分组" transform="translate(0.000000, 40.800000)">
                                <path d="M99,72.7568739 C104.633304,72.7568739 107.80438,73.5042456 109.308421,70.8 C110.812462,68.0957544 104.633304,66 99,66 C93.3666956,66 84,68.1490332 84,70.8 C84,73.4509668 93.3666956,72.7568739 99,72.7568739 Z" id="椭圆形" fill="#E6E6E6"></path>
                                <path d="M58.4066637,57.6515793 L85.4520068,63.5442936 C91.6457014,62.5672243 95.5188748,62.8357875 100.216522,63.4031358 C104.914169,63.970484 109.430574,68.0287858 105.139479,66.737588 C100.848384,65.4463903 94.5129665,65.2703007 94.5623765,66.737588 C94.6117865,68.2048753 99.3256084,68.0722673 99.0551299,70.2027874 C98.8748108,71.6231341 91.4563281,74.3741814 82.7643999,70.2027874 L58.8507146,70.8381791 L58.4066637,57.6515793 Z" id="路径" fill="#E4C7AB"></path>
                                <path d="M33.0285115,7.86627942 L39.0943613,6.81822 C45.95719,23.9927706 43.3399449,36.1323335 56.4,49.2 C61.6005854,54.4036163 68.2559137,57.8467915 75.6263549,59.2059482 C78.4599913,59.7284889 84.0137532,60.1866479 86.4137532,61.3240999 L79.9337532,76.2 C68.9311262,77.1229337 54.7794082,74.9991331 48,69.6 C33.1059712,57.7383682 32.335945,30.0136315 33.0285115,7.86627942 Z" id="路径" fill="#1798FC" fill-rule="nonzero"></path>
                                <path d="M4.2,83.2941909 L58.1,83.2941909 C45.6126087,52.933911 39.368913,27.1432135 39.368913,5.92209819 L23.1099456,3.49975592 C10.331925,24.0492075 6.72337841,49.3497432 4.2,83.2941909 Z" id="Shirt" fill="#F5F5F5" fill-rule="nonzero"></path>
                                <path d="M21.3440284,0.0226635589 L21.3527739,0 L21.3619703,0.00817415209 L21.3721079,1.76470695e-14 L22.4334265,0 C24.3383658,0.0655922179 26.6547502,-0.30642615 28.9352641,2.37980653 C30.4556067,4.17062832 31.5322222,7.198365 32.1651107,11.4630166 C32.5806854,25.1509419 36.2592508,52.1299364 43.2008069,92.4 L7.43317906,92.4 C7.27941663,92.4 7.12569365,92.3950744 6.97224662,92.3852308 C3.00395561,92.1306648 -0.00661338502,88.7073628 0.247948306,84.7390716 C0.45999541,81.4335839 0.637007128,78.7125941 0.778983458,76.5761022 C2.81504415,45.9369995 6.11846002,12.3305716 21.3440284,0.0226635589 Z" id="路径" fill="#1798FC"></path>
                                <polygon id="Light" fill-opacity="0.3" fill="#2A3069" fill-rule="nonzero" points="27.6 92.2925197 27.0482525 61.0944628 33.5339667 92.2925197"></polygon>
                            </g>
                        </g>
                        <g id="分组-14" transform="translate(21.200000, 58.400000)">
                            <path d="M48.7690596,103.76034 L70.9009146,88.2871273 C73.9370247,83.8136619 77.0183633,80.2632186 80.1449305,77.6357975 C81.1282383,77.099169 82.8991807,76.6505552 81.5300244,79.8059063 C80.1608681,82.9612574 78.8628704,86.3415444 79.8158403,87.168877 C80.7688102,87.9962096 82.7706277,86.4894928 83.9526058,87.906379 C84.7405911,88.8509697 81.2593489,90.8408044 73.5088791,93.8758831 L55.4958694,113.015958 L48.7690596,103.76034 Z" id="Skin" fill="#FFEDDB" transform="translate(66.415373, 95.135143) rotate(59.000000) translate(-66.415373, -95.135143) "></path>
                            <path d="M25.2611772,43.5249266 C25.2611772,43.5249266 27.0008335,43.2272583 30.4801459,42.6319217 C41.8475599,53.6322195 47.2723085,81.7018195 54.8478764,85.2 C53.5889351,88.8224249 53.5889351,93.062421 54.8478764,97.9199883 C47.7114489,96.2084677 42.9921036,94.3684716 40.6898406,92.4 C26.4629346,80.2357687 24.7124041,61.9860917 25.2611772,43.5249266 Z" id="Coat-Back" fill="#E9452F" fill-rule="nonzero"></path>
                            <path d="M43.6547024,13.9099454 C48.045244,24.9424986 43.3827147,40.8872025 39.953715,44.1955556 L36.8083737,44.831146 C34.4921134,46.2642881 31.7613964,47.0914863 28.8374769,47.0914863 L27.0773538,47.0914863 C26.6677772,47.0914863 26.2619915,47.0752551 25.8606049,47.043401 L25.544331,47.1073116 C25.5425229,47.0762905 25.5407451,47.0453368 25.5389974,47.0144505 C17.8831252,46.2434524 11.9069538,39.7801742 11.9069538,31.9210863 L11.9069538,17.1792889 C11.9069538,8.80090832 18.6989733,2.00888889 27.0773538,2.00888889 L28.8374769,2.00888889 C36.0934338,2.00888889 42.159598,7.10299676 43.6547024,13.9099454 Z" id="Hair-Back" fill="#191847"></path>
                            <path d="M20.0027017,28.8376752 C16.6822838,25.2278131 14.4257546,20.6899665 14.8008708,15.4107151 C15.8720101,0.335887383 37.1359124,3.6575202 41.2567147,11.2606359 C43.2458036,14.9306186 42.0182056,17.4076015 42.7429651,20.4295914 C43.2458036,22.5262493 44.3019244,23.8657893 45.1850325,25.6573879 C46.07278,27.458399 43.2322036,27.2674965 42.7429651,29.3530741 C42.5828476,30.0356399 41.9910804,33.6100817 41.9165693,33.9308253 C41.2091321,36.9760922 40.8653218,37.7973019 39.4590064,38.1552565 C37.3176797,38.7002963 32.7595173,37.5762954 28.1348713,35.0629703 L31.1675077,56.2488889 C28.1303793,56.4668381 25.2769639,56.3539168 22.6072615,55.9101251 C19.9375592,55.4663334 17.2830763,54.6636622 14.6438129,53.5021114 L20.0027017,28.8376752 Z" id="Head" fill="#FFEDDB"></path>
                            <path d="M25.3719221,26.4570332 C26.5956898,33.1562037 26.80228,40.3995325 23.3920899,44.1955556 C23.2500889,44.3536227 20.6359781,46.0612712 20.4672,46.1360802 C16.1342303,48.0566193 10.8372378,48.266403 4.57622272,46.7654313 C3.42358999,26.9899202 11.9906079,34.6478833 11.9906079,16.0287262 C12.685118,15.358652 13.3413737,14.6954315 13.9907445,14.1234698 L13.9677454,13.5758862 C17.5499757,6.33416504 22.094644,2.71330447 27.6017502,2.71330447 C35.8624096,2.71330447 38.4698152,6.50892264 40.6898406,9.73145733 C39.8873546,12.4504952 38.608192,16.7569456 36.192,18.08 C33.8013697,19.3890574 30.8200763,19.9843275 27.934789,21.0408932 C27.3043504,19.7339128 25.954324,18.830624 24.3906462,18.830624 C22.2237867,18.830624 20.4672,20.5652008 20.4672,22.7049097 C20.4672,24.8446186 22.2237867,26.5791954 24.3906462,26.5791954 C24.7294864,26.5791954 25.0582944,26.5367802 25.3719221,26.4570332 Z" id="Hair-Front" fill="#191847"></path>
                            <path d="M42.395838,31.1350619 C41.788745,31.2061325 41.1653984,31.1350619 40.5642357,31.1350619 C39.4761734,31.1350619 38.2855368,30.9249813 38.208,31.1350619 C38.1054358,31.4129525 38.5224116,32.3007669 39.4732866,32.9427202 C40.2445581,33.4634199 41.5046573,33.5709758 42.0277527,33.2901587 L42.395838,31.1350619 Z" id="形状" fill="#D94A5B"></path>
                            <path d="M23.3940333,14.270103 C23.4124952,11.0456024 23.563567,9.20094517 23.8928795,7.01504612 C24.3836478,3.75744094 26.4670169,2.16401056 30.0783223,0.915678507 C30.8021942,0.905408351 31.3235896,1.07398164 31.6425087,1.42139838 C32.1208873,1.94252349 32.1017979,2.10694477 31.4785009,2.41360419 C28.9021085,3.68117812 26.7668947,5.6343658 26.4604095,7.40453767 C26.0485079,9.78356505 25.8908254,11.2115834 25.8485444,14.1008998 C29.395481,14.4715606 32.16,17.4607417 32.16,21.0933333 C32.16,24.9765088 29.0009212,28.1244444 25.104,28.1244444 C21.2070788,28.1244444 18.048,24.9765088 18.048,21.0933333 C18.048,17.797758 20.3233537,15.0317455 23.3940333,14.270103 Z" id="合并形状" fill="#D0D3E2"></path>
                            <ellipse id="椭圆形-copy" fill="#FFFFFF" cx="25.104" cy="21.0933333" rx="5.04" ry="5.02222222"></ellipse>
                            <path d="M3.936,116.515556 C29.2005442,114.259094 41.7299641,112.622106 41.5242597,111.60459 C40.4094179,106.09003 41.0450345,104.962981 39.5030139,98.4355556 C37.5742028,90.2708325 43.9117247,76.8741979 41.5242597,68.3022222 C39.723504,61.836773 32.4706755,55.6192342 32.4706755,48.2133333 L21.1356282,48.2133333 C9.99088658,65.8031967 6.13684169,87.45988 3.936,116.515556 Z" id="Shirt" fill="#F6F7FC" fill-rule="nonzero"></path>
                            <path d="M4.81179579,93.8523852 C-3.25495952,75.6302708 -0.538573111,50.6289666 12,47.0914863 L20.0579937,45.5063565 L19.8216753,45.9177245 L22.08,45.5063565 C31.2483994,65.238973 37.3423305,81.7083666 40.3617934,94.9145374 C40.4717184,95.0191529 40.5810724,95.1249603 40.6898406,95.2319938 L40.5887497,95.927396 C43.2174482,107.905917 43.2511452,117.130118 40.6898406,123.6 L3.936,123.49252 C3.936,113.668835 4.08235369,103.623216 4.81179579,93.8523852 Z" id="Coat-Front" fill="#E9452F"></path>
                            <path d="M63.5807206,81.4168298 L74.7243476,84.2413806 C70.2803822,97.5867858 66.262339,103.950579 63.724845,108.318843 C62.4250246,110.556467 64.1244538,114.285256 58.9636035,117.980951 C55.4791904,120.476147 53.7424677,122.953049 46.8481002,126.915138 C46.1686816,127.30559 45.8242764,125.096505 47.3744713,122.882597 C50.2351827,118.797078 53.8846298,113.866428 55.0686645,112.312605 C56.6833074,110.19369 59.5378846,101.997005 63.5807206,81.4168298 Z" id="Arm" fill="#FFEDDB" transform="translate(60.499061, 104.188559) scale(-1, 1) rotate(55.000000) translate(-60.499061, -104.188559) "></path>
                        </g>
                        <rect id="矩形" fill="#000000" transform="translate(135.935818, 123.624258) rotate(10.000000) translate(-135.935818, -123.624258) " x="133.535818" y="84.624258" width="4.8" height="78" rx="1.2"></rect>
                        <path d="M159.222679,85.2172655 L160.422682,85.2172655 C161.085424,85.2172655 161.622682,85.7545238 161.622682,86.4172655 L161.622691,162.017301 C161.622691,162.680043 161.085433,163.217301 160.422691,163.217301 C160.422688,163.217301 160.422685,163.217301 160.422682,163.217301 L157.531036,163.217305 C157.089418,163.217301 156.683488,162.974744 156.474252,162.58584 C152.272774,154.77661 150.172035,143.61844 150.172035,129.111333 C150.172035,115.011481 152.156482,101.154552 156.125377,87.5405458 L156.125377,87.540546 C156.526733,86.1638233 157.788645,85.2172655 159.222679,85.2172655 Z" id="矩形-copy-4" fill="#CCCCCC" transform="translate(155.897359, 124.217283) rotate(-8.000000) translate(-155.897359, -124.217283) "></path>
                        <polyline id="路径-6" stroke="#CCCCCC" stroke-width="2.4" stroke-linecap="round" points="151.439097 122 146 167.861415 163.593657 167.861415"></polyline>
                        <polyline id="路径-6-copy" stroke="#000000" stroke-width="2.4" stroke-linecap="round" transform="translate(135.596829, 144.930707) scale(-1, 1) translate(-135.596829, -144.930707) " points="132.239097 122 126.8 167.861415 144.393657 167.861415"></polyline>
                        <circle id="椭圆形" stroke="#979797" stroke-width="1.2" fill="#9B9B9B" cx="151.4" cy="128.6" r="3"></circle>
                        <text id="支持跨境接待" font-family="PingFangSC-Semibold, PingFang SC" font-size="21.6" font-weight="500" letter-spacing="0.6" fill="#1A1A1A">
                            <tspan x="45" y="43">支持境外服务器部署</tspan>
                        </text>
                    </g>
                    <g id="分组-40">
                        <g id="分组-32">
                            <g id="矩形">
                                <use fill="black" fill-opacity="1" filter="url(#filter-7)" xlink:href="#path-6"></use>
                                <use fill="#FFFFFF" fill-rule="evenodd" xlink:href="#path-6"></use>
                            </g>
                            <rect id="矩形" fill="url(#linearGradient-8)" x="12" y="180" width="172" height="32" rx="4"></rect>
                            <text id="更稳定、更快速" font-family="PingFangSC-Semibold, PingFang SC" font-size="18" font-weight="500" letter-spacing="0.5" fill="#FFFFFF">
                                <tspan x="33" y="202">更稳定、更快速</tspan>
                            </text>
                            <text id="核心服务独立节点" font-family="PingFangSC-Regular, PingFang SC" font-size="12" font-weight="normal" fill="#000000">
                                <tspan x="69" y="43">私有服务器</tspan>
                            </text>
                            <text id="保证服务稳定性，消除弹出延迟" font-family="PingFangSC-Light, PingFang SC" font-size="12" font-weight="300" fill="#4A4A4A">
                                <tspan x="28" y="70">保证服务稳定性，消除延迟</tspan>
                            </text>
                            <path d="M66.6912236,130.122639 C68.3668828,115.42078 80.8497084,104 96,104 C110.809956,104 123.070944,114.913431 125.179582,129.136912 L165.011995,129.136912 L196.0946,129.865529 L195.946984,140.863902 L164.938187,140.136098 L124.750439,140.136826 C121.739511,153.233241 110.01033,163 96,163 C82.4441602,163 71.0238705,153.856623 67.569885,141.400623 L39.732886,140.755253 L0,140.756086 L0,129.5 L39.8047144,129.5 L66.6912236,130.122639 Z M96,152 C106.217268,152 114.5,143.717268 114.5,133.5 C114.5,123.282732 106.217268,115 96,115 C85.7827321,115 77.5,123.282732 77.5,133.5 C77.5,143.717268 85.7827321,152 96,152 Z" id="合并形状" fill="#D8DEE6" fill-rule="nonzero"></path>
                            <polygon id="路径-8" fill="#1798FC" points="98 124 91 134 98.5374152 135.421439 96 143.557848 103.737597 133.136098 96.6150748 130.8"></polygon>
                            <polygon id="三角形" fill="url(#linearGradient-9)" points="98 241 120 259 76 259"></polygon>
                            <polygon id="三角形-copy-3" fill="url(#linearGradient-9)" points="98 232 120 250 76 250"></polygon>
                        </g>
                        <g id="分组-31" transform="translate(12.000000, 242.000000)"></g>
                    </g>
                    <g id="矩形">
                        <use fill="black" fill-opacity="1" filter="url(#filter-11)" xlink:href="#path-10"></use>
                        <use fill="#FFFFFF" fill-rule="evenodd" xlink:href="#path-10"></use>
                    </g>
                    <g id="分组-33" transform="translate(344.000000, 35.000000)">
                        <g id="合并形状">
                            <use fill="black" fill-opacity="1" filter="url(#filter-13)" xlink:href="#path-12"></use>
                            <use fill="#FFFFFF" fill-rule="evenodd" xlink:href="#path-12"></use>
                        </g>
                        <path d="M14,56 L120,56 L120,58 L14,58 L14,56 Z M0,11 L134,11 L134,13 L0,13 L0,11 Z" id="合并形状" fill="#B7D8FF"></path>
                    </g>
                    <g id="盾" transform="translate(245.000000, 24.000000)">
                        <path d="M66.3321756,7.05565699 C66.3321756,6.1623585 66.4172517,5.31159799 66.5874037,4.46083748 C66.5874037,4.46083748 54.9319853,2.84439255 38.8951505,2.84439267 C22.8583156,2.8443928 11.1603592,4.4608376 11.1603591,4.46083748 C11.2879732,5.31159799 11.4155872,6.16235838 11.4155872,7.05565699 C11.4155872,14.1169688 6.69386663,20.0297542 0.228087144,21.8588892 L3.20574874,63.333462 C3.20574874,63.333462 4.05650925,75.8396409 10.9476691,81.8800402 C13.6701025,84.2621696 18.4768992,87.8353635 23.4113098,90.8981012 C30.8554639,95.4922077 38.4697701,99.3631678 38.8951505,99.5333199 C39.3205307,99.3206297 46.9348369,95.4922076 54.378991,90.8981012 C59.3559397,87.8353635 64.1627364,84.2621696 66.8426319,81.8800402 C73.7337917,75.8821789 74.5845522,63.333462 74.5845521,63.333462 L77.5622138,21.8588892 C71.0964342,20.0297542 66.3321756,14.1169688 66.3321756,7.05565699 Z" id="路径" fill-opacity="0.7" fill="#82AEEF" filter="url(#filter-14)"></path>
                        <path d="M66.3321756,4.46083748 C66.3321756,3.56753899 66.4172517,2.71677848 66.5874037,1.86601809 C66.5874037,1.86601809 54.9319853,0.249573158 38.8951505,0.249573158 C22.8583156,0.249573158 11.1603592,1.86601809 11.1603591,1.86601809 C11.2879732,2.7167786 11.4155872,3.56753899 11.4155872,4.46083748 C11.4155872,11.4796113 6.65132864,17.4349347 0.228087144,19.2640696 L3.20574874,60.7386425 C3.20574874,60.7386425 4.05650925,73.2448214 10.9476691,79.2852208 C13.6701025,81.6673502 18.4768992,85.2405441 23.4113098,88.3032817 C30.8554639,92.8973882 38.4697701,96.7683483 38.8951505,96.9385005 C39.3205307,96.7258103 46.9348369,92.8973882 54.378991,88.3032817 C59.3559397,85.240544 64.1627364,81.66735 66.8426319,79.2852208 C73.7337917,73.2873595 74.5845522,60.7386426 74.5845521,60.7386425 L77.5622138,19.2640696 C71.0964342,17.4349347 66.3321756,11.4796113 66.3321756,4.46083748 Z" id="路径" fill="#FFFFFF"></path>
                        <path d="M74.9248563,20.8379766 L72.1598847,59.5475779 C72.1598847,59.5475779 71.3516623,71.2455344 64.9284208,76.8180154 C62.4186774,79.0299925 57.9096469,82.3479584 53.2730023,85.198006 C46.1266144,89.6219605 38.8100744,93.2802304 38.8100744,93.2802304 L38.8100744,3.05708271 C38.8100744,3.05708271 45.6161581,2.92946864 52.8901601,3.35484895 C58.249951,3.65261508 61.9507591,4.16307136 63.6522801,4.4182995 C63.567204,5.05636985 63.524666,5.6944402 63.524666,6.37504853 C63.524666,9.52286231 64.5030406,12.4154478 66.1620234,14.7975772 C67.9060824,17.3073206 70.4158257,19.2640696 73.3934874,20.3275203 C73.9039437,20.4976724 74.4144,20.7103625 74.9248563,20.8379766 Z" id="路径" fill="#DCECFF"></path>
                    </g>
                    <g id="合并形状">
                        <use fill="black" fill-opacity="1" filter="url(#filter-16)" xlink:href="#path-15"></use>
                        <use fill="#FFFFFF" fill-rule="evenodd" xlink:href="#path-15"></use>
                    </g>
                </g>
            </g>
        </g>
    </g>
</svg>